<?xml version="1.0" encoding="UTF-8"?>
<svg id="_레이어_2" data-name="레이어_2" xmlns="http://www.w3.org/2000/svg" viewBox="0 0 354.83 113.39">
  <defs>
    <style>
      .cls-1 {
        fill: #f5bb39;
      }

      .cls-1, .cls-2 {
        fill-rule: evenodd;
      }

      .cls-2 {
        fill: #fff;
      }
    </style>
  </defs>
  <g id="Layer_1">
    <g>
      <path class="cls-2" d="M354.83,103.97c0,5.17-4.19,9.39-9.36,9.39-4.3,0-7.92-2.88-9.08-6.86l-20.77-82.37c-.7-2.71-3.13-4.7-6.04-4.7s-5.35,1.99-6.05,4.7l-20.76,82.37c-1.12,3.97-4.76,6.86-9.06,6.86-5.21,0-9.38-4.22-9.38-9.39,0-.88.08-1.74.33-2.57l20.95-82.93c2.78-10.62,12.5-18.47,23.97-18.47s21.19,7.85,24.03,18.47l20.88,82.93c.24.83.34,1.68.34,2.57"/>
      <path class="cls-2" d="M137.58,24.14c-.68-2.71-3.14-4.7-6.05-4.7s-5.36,1.99-6.02,4.7l-20.79,82.38c-1.12,3.93-4.75,6.87-9.04,6.87-5.22,0-9.4-4.25-9.4-9.42,0-.88.11-1.74.33-2.54l20.91-82.97C110.36,7.85,120.05,0,131.52,0s21.19,7.84,23.99,18.45l17.46,69.23c1.07,4.02,4.73,6.97,9.05,6.97l24.21-.09c20.95,0,37.9-16.95,37.9-37.89s-16.95-37.87-37.9-37.87h-24.7c-5.14,0-9.35-4.24-9.35-9.41S176.4,0,181.54,0h24.7c31.29,0,56.68,25.36,56.68,56.68s-25.39,56.7-56.68,56.7h-24.21c-13,0-23.93-8.85-27.13-20.85l-17.32-68.4Z"/>
      <path class="cls-1" d="M195.18,47.04c1.76-1.76,3.23-3.17,4.54-4.34l.11-.13c2.84-2.57,7.14-2.57,9.97-.01l.15.12c1.3,1.19,2.8,2.6,4.53,4.37h.04c1.76,1.75,3.18,3.25,4.3,4.53l.16.14c2.55,2.83,2.55,7.16-.03,9.99l-.13.12c-1.15,1.3-2.58,2.8-4.34,4.53l-.02.03c-1.74,1.73-3.21,3.15-4.51,4.3l-.11.14c-2.85,2.55-7.13,2.56-9.97.01l-.15-.13c-1.28-1.16-2.78-2.59-4.5-4.33l-.04-.03c-1.74-1.73-3.18-3.25-4.34-4.54l-.15-.14c-2.56-2.84-2.56-7.16.04-9.98l.11-.13c1.16-1.28,2.6-2.77,4.33-4.51h.01Z"/>
      <path class="cls-2" d="M90.55,9.6c0,2.57-1.05,4.86-2.73,6.57-1.65,1.68-4.01,2.74-6.59,2.74h-26.67v84.88c0,5.11-4.14,9.29-9.27,9.29s-9.31-4.19-9.31-9.29V18.92H9.29C4.18,18.92,0,14.7,0,9.6S4.18.29,9.29.29h71.94c5.14,0,9.32,4.17,9.32,9.31"/>
    </g>
  </g>
</svg>